<svg version="1" xmlns="http://www.w3.org/2000/svg" width="3780" height="3780" viewBox="0 0 2835.000000 2835.000000"><path d="M2002.9 35.5c-5.5 1.8-13.9 9-17.4 14.9-7.9 13.5-9.9 29.4-9.9 79.6 0 32.4 1.2 59.8 3.9 90 .3 3 .7 8 1 11 .8 8.6 1.5 16.1 2 21 .8 7.7 1.5 14.3 2 18.7.3 2.4.7 6.4 1 9 .3 2.7.7 5.9 1 7.3.2 1.4.7 5.2 1 8.5.7 6.5 1.3 11.5 2 15.5.2 1.4.7 5.2 1 8.5.4 3.3.8 6.7 1 7.5.2.8.9 5.3 1.5 10 .5 4.7 1.3 9.8 1.6 11.5.3 1.6.7 4.8.9 7.2.2 2.3.6 5 .9 6 .3 1 .7 4 1 6.8.3 2.7 1 8.1 1.5 12 .6 3.8 1.3 9.2 1.7 12 .3 2.7.8 5.8 1 6.9.2 1 .6 4.4 1 7.5.3 3.1.8 6.3.9 7.1.2.8.6 4.4 1 8 .4 3.6.8 7.2 1 8 .2.8.6 4.4 1 8 .4 3.6.9 7.4 1.2 8.5.3 1.1.7 8.3.9 16.1.4 14.2-.2 18-3.9 25.4-4.4 9-17.7 16.2-34 18.5-2.7.3-5.6.8-6.5 1-3 .5-18.3 1.5-31.2 2-43.7 1.6-53.6 2.4-65 5.5-21.2 5.7-32.9 26.2-28.5 50 2.1 11.8 14.6 28 28.9 37.4 18.6 12.3 32.9 17.6 54.1 20.1 2.8.4 5.7.8 6.5 1 .8.3 4 .7 7 1 3 .3 6.6.8 8 1 2.8.4 22.9 3.1 30.5 4 2.8.3 6.4.8 8 1 12.7 1.7 19.4 2.6 32 4.1 3.3.3 6.8.8 7.9 1 1 .2 4.4.6 7.5 1 3.1.3 7 .8 8.6 1 1.7.2 5.5.7 8.5 1 3 .3 7.5 1 10 1.5 4.2.7 20.5.5 34.5-.5 3.3-.3 10.1-.8 15-1.1 5-.3 11.5-.8 14.5-1 3-.2 10-.7 15.5-1 5.5-.3 11.4-.8 13-1 1.7-.2 7-.7 11.9-1 5-.4 9.7-.8 10.5-1 .9-.1 5.2-.6 9.6-.9 4.4-.4 10.7-1.1 14-1.6 3.3-.5 7.6-1.2 9.5-1.4 18.4-2.5 33-9.4 44.6-21 10.5-10.4 15.7-22.2 17-38 2-25.8 9.5-43.1 24.7-57.2 14.9-13.8 29.5-20.7 91.2-42.6 25.7-9.2 37.4-13.4 54.5-19.9 10.2-3.9 19.9-7.7 21.5-8.4 1.7-.7 8.2-3.4 14.5-6 38.4-15.7 52.6-30.2 53.5-55 .5-16-5-32.6-14.4-43.3-7.5-8.6-20.7-16.4-36.4-21.6-6.9-2.3-27.2-6.6-38.2-8-7.4-1-12-1.6-15-2-1.6-.3-5.2-.8-8-1.1-2.7-.3-8.1-1-12-1.5-3.8-.5-9.7-1.2-13-1.5-3.3-.3-7.6-.8-9.5-1-1.9-.3-6.4-.7-10-1-3.6-.3-9.2-.7-12.5-1-16.2-1.4-19.6-1.7-39-3-4.4-.3-10.5-.8-13.5-1-3-.2-10.4-.7-16.5-1-22.3-1.3-36-4.2-47.9-10.2-5.8-2.9-11.7-6.9-16.2-11-2.6-2.4-19.7-23.6-28.4-35.3-1.4-1.8-3.6-4.7-5-6.5-1.4-1.8-3.5-4.5-4.7-6.1-1.2-1.6-14.2-18.9-28.9-38.4-27.4-36.3-38.4-51-41-54.5-6.1-8.5-23-31.2-23.8-32.1-.6-.7-2-2.4-3.1-4-13.3-18.5-38.6-45.6-49.3-52.7-5.4-3.6-7.5-4.7-14.7-7.7-4.7-1.9-17.3-2.2-22.6-.5zM1901 639.3c-.3.3-2.3.7-4.5 1-2.2.3-9.6 1.8-16.5 3.2-6.9 1.4-19.2 4-27.5 5.6-19.4 3.9-30.2 7.5-45.2 15.4-13.5 7-36.6 22-42.4 27.5-4.5 4.2-7 11.9-7.4 22.5-.5 12.6.6 15.4 9.3 23.9 35 33.8 72.5 56.2 111.7 66.6 8.5 2.3 9.4 2.5 16.5 3.5 2.5.3 5.1.8 5.8 1.1 3.5 1.1 23.3 1.5 28.4.6 21-4 29.6-18.2 30.2-50 .2-6.1-1.2-16.8-3.7-30.2-1.5-8-18.7-60.1-23.7-71.8-3.9-9.1-8.4-15-13-17.1-3.6-1.6-16.8-2.9-18-1.8zM1919.5 901.1c-26.2 2-45.8 18.2-56.6 46.6-2.1 5.5-6.7 24.8-7.5 30.8 0 .5-.4 2.8-.8 5-1.6 9.2-2.5 15.3-3.1 20.4-.4 3-.8 6.2-1 7.2-.2 1-.7 4.6-1.1 8.1-.6 6.2-.8 7.9-1.8 16.8-.3 2.5-.8 7.4-1.1 11-.3 3.6-.8 8.1-1 10-.2 1.9-.7 7.1-1 11.5-.3 4.4-.8 9.8-1 12-.2 2.2-.7 7.4-1 11.5-.3 4.1-.7 10-1 13-.2 3-.7 9-1 13.3-.3 4.2-.8 9.6-1 12-.2 2.3-.6 7.3-1 11.2-.3 3.8-.8 8.8-1 11-.4 3.5-1.1 11.7-2 22.5-.2 1.9-.6 7.5-.9 12.5-.3 4.9-.8 11.2-1.1 14-.2 2.7-.7 8.8-1 13.5-.4 4.7-.8 10.1-1 12-.2 1.9-.6 7.8-1 13-.3 5.2-.8 11.1-1 13-.2 1.9-.7 7.3-1 12-.3 4.7-.8 9.6-1 11-.2 1.4-.6 5.9-1 10s-.8 8.6-1 10c-.2 1.4-.6 5.4-1 9-.3 3.6-.8 7.6-1 9-.2 1.4-.7 4.5-1 7-.3 2.5-.8 6.2-1.1 8.2-.3 2.1-.7 5-.9 6.5-2.9 21.9-7.3 35.3-15.9 48.2-4.8 7.2-13.3 16.2-17.8 18.9-1.5.9-2.8 2-2.8 2.4 0 .4-.5.8-1 .8-.6 0-2.8 1.1-4.9 2.5-9.6 6-26.1 11-43.1 13-3 .3-7.3.8-9.5 1.1-13.5 1.6-34.4 8.6-49.1 16.5-27.6 14.6-52.7 38.1-70 65.4-12.1 18.9-23.1 46.1-25.8 63.5-.3 1.9-.7 4.4-1 5.5-.4 1.9-.7 5.2-2.2 20.7-.8 8.4-1.2 11.4-1.8 14.6-.3 1.5-.8 4.3-1.1 6.2-.6 3.2-3.3 13.9-5.4 20.5-17.7 57.9-66.7 105.2-128.6 124.2-4.4 1.3-9.1 2.7-10.5 2.9-1.4.3-5.2 1.1-8.5 1.9-3.3.7-8.1 1.6-10.6 1.9-19.8 2.6-46.2 14-71.9 31.1-16.9 11.1-27.5 20.2-39.3 33.6-6 6.7-15.5 20.7-18.7 27.4-1.2 2.7-3.3 7.2-4.6 10-16.6 35.8-45.2 61.8-85.3 78-20.4 8.2-51.7 16.5-83.1 22.1-1.4.2-3.6.7-5 1-1.4.3-3.6.8-5 1-1.4.2-4.5.9-7 1.4-2.5.6-5.6 1.3-7 1.6-9 1.8-15 3-45.5 9.4-18.7 3.9-35.1 7.3-36.5 7.6-2.7.5-26.2 5.3-29.5 6-3.4.8-17.9 3.6-20.5 4-1.4.3-4.9.9-7.9 1.5s-6.4 1.2-7.5 1.4c-1.2.2-4.6.8-7.6 1.4-3 .6-6.8 1.4-8.5 1.7-1.6.2-7.7 1.3-13.5 2.4-5.8 1-12.3 2.1-14.5 2.5-2.2.3-7.8 1.2-12.5 2s-10.3 1.7-12.5 2c-2.2.2-4.9.6-6 .9-1.1.2-4.2.7-7 1-10.3 1.5-12.1 1.7-14.6 2.2-1.5.2-4.7.6-7 .9-4.7.5-12.7 1.5-16.9 2-1.4.2-5.4.6-9 1-3.6.3-8.1.8-10 1-1.9.3-6 .7-9 1-3 .3-8 .7-11 1-5 .4-14.1 1.1-27.5 2-8.1.6-37.6 1.6-57 2-9.9.2-19.8.6-22 1-12.3 1.8-20.2 3.1-24.5 4-1.4.3-3.4.7-4.5.9-1.1.2-4 .9-6.5 1.6-2.5.7-5.5 1.4-6.7 1.6-2.3.4-28.8 9.3-39.4 13.3-9 3.3-17.7 9-25.9 17.1-11.9 11.6-17.9 21.8-22.5 38-6.6 23.3-20.6 47.6-35.8 62.2-9.4 9-20.6 18.5-31.3 26.5-9 6.7-38.3 28.9-40.6 30.7-1.4 1.1-4.1 3.2-5.9 4.6-9.1 6.9-16.7 14.2-27.4 26.5-3.3 3.8-7.7 8.7-9.7 10.9-2.1 2.2-3.7 4.1-3.5 4.2.1.1 1.9.5 3.9.8 2.1.3 5.9 1.1 8.5 1.7 2.7.6 6.2 1.2 7.8 1.5 1.7.2 6.4.9 10.5 1.5 9.5 1.5 10.9 1.7 20 2.4 4.1.4 8.9.9 10.5 1.1 4.1.5 40.4.5 43.5 0 1.4-.2 5.4-.7 9-1.1 21.5-2 46.6-8.1 64.5-15.5 20.2-8.4 35.2-16.7 52-28.5 11.9-8.4 28.4-17.7 42-23.6 12.4-5.3 34.4-11.9 44.6-13.4 2.4-.3 5.1-.8 5.9-1 1.6-.4 6.4-1.1 15-2.1 3-.3 14.7-.5 26-.3 78.2.9 103.2.2 132-3.6 1.9-.3 5.5-.7 8-1 4.3-.6 24.3-4 28.5-4.9 12-2.6 22.1-5.1 32.5-8.2 6.9-2 14.8-4.2 17.5-5 6.5-1.9 22.2-5.4 25.8-5.9 1.6-.2 4-.6 5.5-.9 5.1-1.1 8.7-1.6 15.2-2.2 3.6-.3 7.3-.8 8.3-1 1-.2 6.2-.6 11.5-.9 5.3-.4 11.5-.9 13.7-1.1 2.2-.2 16.8-.6 32.5-.9 30.4-.6 33.7-.2 43.4 4.5 11.3 5.4 18.6 20.5 20.2 41.5.2 3.3.6 7.8.9 10 .2 2.2.7 8.7 1 14.5.3 5.8.8 11.6 1 13 .2 1.4.7 6.5 1 11.5.4 4.9.8 10.1 1 11.5.2 1.4.7 5.2 1 8.5.4 3.3.8 7.1 1 8.5.3 1.4 1.1 7.2 2 13 2.1 14.2 5.8 28.6 9.2 36.2 2.8 6.4 8.9 14.7 14.6 19.9 7.9 7.1 24.3 13.3 39.2 14.6 60.9 5.5 123.3-27.9 158.6-84.7 16.8-27.2 25.6-54.6 28.4-88.5 2.8-34.4 14.9-55.6 38.7-67.6 5.6-2.9 20.7-8.3 25.8-9.3 1.4-.3 5.7-1.2 9.5-2 9.5-2 11.4-2.3 26-4.2 2.2-.3 25.4-.7 51.5-.9 45-.4 79-1.1 89-1.9 13.8-1.1 21.6-1.8 22-2.1.3-.2 2.4-.6 4.6-.9 18.4-2.8 35.5-9.2 47.7-18 19.7-14 30.5-37.7 33.2-73.1 1.8-23 2.1-24.9 6.6-39.5 10.5-33.4 37.8-68.8 71.7-92.9 3.9-2.8 7.4-5.1 7.6-5.1.2 0 3.3-1.7 6.8-3.9 11.5-7 27.3-13.6 40.8-17.1 5.3-1.4 5.2-1.4 15-2.9 48.3-7.6 68.5-18.5 81.4-43.8 4.3-8.4 8.8-22.5 10.9-34.3 2.2-11.5 2.9-15.9 4.1-25.5 1.4-10.3 1.8-14 3-25.5.9-7.9 2.3-26 3.1-40 .6-9.2.8-13.3 1.9-36.5.8-16.3 2.4-41 3.2-51 .3-3.3.7-7.8.9-10 1.1-14.2 1.7-20.3 2-22.5.2-1.4.7-6.1 1-10.5.4-4.4.8-9.1 1-10.5.2-1.4.6-5.4 1-9 .3-3.6.8-8.1 1-10 .3-1.9.7-6.7 1-10.5.3-3.9.7-7.9.9-9.1.2-1.1.7-5.4 1.1-9.5.3-4.1.8-8.1 1-8.9.2-.8.6-4.6 1-8.3.3-3.7.8-7.7 1-8.9.3-1.1.7-4.6 1-7.7.3-3.1.8-6.7 1-8.1.3-1.4.7-4.8 1-7.5.3-2.8.7-6.1 1-7.5.3-1.4 1.2-7.5 2-13.7.9-6.2 1.8-12 1.9-13 .2-1 .7-3.8 1.1-6.3.4-2.5.9-5.2 1-6 .1-.8.6-3.5 1-6 3.3-21.2 12.9-38.6 26.9-49 9.9-7.3 23.4-12.7 36.1-14.4 2.2-.3 6-.8 8.4-1.2 11.9-1.6 21.9-7.3 35.8-20.8 29.6-28.3 49.7-59.8 63.7-99.6 2-5.7 6.3-21.5 7.1-25.9.3-1.9.8-3.7 1-4 .2-.4.6-2.6 1-5.1.4-2.5.8-4.7 1-5 .2-.3.6-3.2.9-6.4.4-3.2.8-6.2 1-6.5.2-.3.7-4.4 1.1-9.1.4-4.7.9-10.1 1.1-12 .1-1.9.3-9.1.4-16 .1-10.3-.2-13.7-2-19.5-1.2-3.9-2.5-7.2-2.9-7.5-.3-.3-1.4-1.7-2.4-3.2-3.1-4.9-11.3-10.5-18.4-12.7-7.3-2.2-13.7-2.8-41.8-3.6-30.3-.9-40-1.7-63.5-5-6.9-1-20.2-4.1-23.5-5.5-1.1-.4-4.6-1.8-7.8-3-22.8-8.8-36.7-26.9-43.1-56-.7-2.9-2.1-12.3-3.1-20.5-4.9-40.5-23.1-66.2-53.9-76.5-8.5-2.9-11.9-3.6-21.1-4.6-2.7-.3-5.2-.7-5.5-.8-.3-.1-4.1.1-8.5.5z"/><path d="M764.6 2287.7c-.1.1-17.5.4-38.6.7-39.6.5-42.3.7-50 3.4-21.5 7.6-35.1 26-39 52.7-.6 4.4-1.3 9.1-1.5 10.5-.2 1.4-.7 5-1 8-.3 3-.7 7.1-1 9-1.5 11.1-3.5 45-5.1 86.5-1 24.7-1 24.2 5.9 38 5.8 11.7 9.9 17.6 16.4 24 17.8 17.6 43.3 25.8 66.5 21.5 6.9-1.3 16.4-6 20.8-10.4 11.6-11.2 14.4-27 15.5-85.1.6-28.4.9-32.6 4-43.3 4-13.6 11.5-23.1 22.5-28.5 5.9-2.8 7.5-3.1 17.5-3.3 17.3-.4 25.7 2.1 54 15.6 14.4 6.9 34.7 14.2 47 16.9 11.9 2.7 18.4 2.1 27.8-2.2 10.7-5 23.2-12.6 30.4-18.7.7-.5 1.6-1 2.2-1 .5 0 1.1-.3 1.3-.8.2-.4 3.4-3.4 7.2-6.7 9.4-8 22-20.8 32.5-33 12.5-14.3 37.1-44.3 37.4-45.6.1-.6-4.7-2.8-10.7-4.9l-10.8-4-125.5.3c-69 .1-125.5.3-125.7.4zM407.5 2369.1c-8.8 2.2-16.9 4.1-18 4.3-1.1.2-6.9 1.6-13 3.1-6 1.4-11.7 2.8-12.5 3-19 4.4-51 14.7-59.2 19.2-12.2 6.6-20.8 19.6-24.4 36.4-3.7 17.8-1.5 40.1 5.1 51.4 4.7 8.1 14.1 12.1 28.8 12.4 23.3.5 26.5 1.1 34.3 5.6 11.3 6.6 16.5 21.4 15.9 45-.5 19.1-5.1 33.8-16 50.7-5.6 8.5-7.1 10.4-21.9 26.2-16 17.1-17 18.2-24.9 28.1-10.3 12.9-13.5 18.2-17.5 29-8.4 23.1-7.3 51.6 3 73.2 4.2 8.9 8 14.4 14.5 20.9 5 5.1 19.4 15.4 21.4 15.4.5 0 2.8.9 5.2 2 8.9 4.1 18.8 6.1 31.7 6.5 19.1.5 32-2.4 50-11.2 7.7-3.8 11-6.2 17.5-12.8 4.8-4.7 9.3-10.5 11.2-14 3.7-7 7.8-19.1 8.7-25.5.3-2.5.8-5.5 1-6.6.2-1.2.7-5.5 1-9.5.8-9.7 1.7-17.7 2.2-20.3.2-1.2.7-3.4 1-5.1.9-5 5-16.6 8.6-24 6.9-14.5 13.1-22.4 32.6-42.2 8.2-8.3 17.9-19.1 21.6-24 10.5-13.9 17.6-30.4 19.4-44.3 1.5-12.4.6-80.8-1.2-91-.3-1.4-.7-5-1-8-.3-3-.8-6.4-1-7.5-.2-1.1-.7-3.8-1.1-6-1.7-9.2-2.1-11.1-3.9-18.1-7.4-28.5-21.8-46.5-44.4-55.7-6.7-2.8-19.9-6.2-27.7-7.2-2.7-.4-6-.8-7.2-1-1.3-.2-6.9-.7-12.5-1-5.7-.4-10.5-.9-10.8-1-.3-.1-7.7 1.5-16.5 3.6z"/></svg>